<svg width="933.0275146484374px" height="99.21995849609375px" xmlns="http://www.w3.org/2000/svg" viewBox="-216.51375732421872 25.390020751953124 933.0275146484374 99.21995849609375" style="background: rgba(255, 255, 255, 0);" preserveAspectRatio="xMidYMid"><defs><filter id="editing-extrude-glow"><feFlood flood-color="#141414" result="flood-1"></feFlood><feMorphology operator="erode" radius="1" in="SourceAlpha" result="erode"></feMorphology><feComposite operator="in" in="flood-1" in2="erode" result="comp1"></feComposite><feConvolveMatrix order="3,3" divisor="1" in="comp1" result="convolve" kernelMatrix="0 0 0 1 1 1 0 0 0"></feConvolveMatrix><feOffset dx="-3" dy="0" in="convolve" result="extrude"></feOffset><feComposite operator="in" in="flood-1" in2="extrude" result="comp-extrude"></feComposite><feFlood flood-color="rgba(79.71428571428572%,50.83903248687756%,39.07504043126684%,0.896)" result="flood-2"></feFlood><feComposite operator="in" in="flood-2" in2="SourceAlpha" result="comp2"></feComposite><feMorphology operator="dilate" radius="1" in="comp2" result="dilate"></feMorphology><feOffset dx="-4.5" dy="0" in="dilate" result="offset"></feOffset><feGaussianBlur in="offset" stdDeviation="5.8" result="blur"></feGaussianBlur><feComponentTransfer in="blur" result="shadow"><feFuncA type="linear" slope="0.8" intercept="-0.2"></feFuncA></feComponentTransfer><feMerge><feMergeNode in="shadow"></feMergeNode><feMergeNode in="comp-extrude"></feMergeNode><feMergeNode in="SourceGraphic"></feMergeNode></feMerge></filter></defs><g filter="url(#editing-extrude-glow)"><g transform="translate(-84.22499391436577, 93.75)"><path d="M0.75-1.25L0.45-7.40L6.70-12.20L10.60-15.40L10.60-15.40Q12.60-17.10 14.05-18.60L14.05-18.60L14.05-18.60Q16.70-21.25 16.70-23.80L16.70-23.80L16.70-23.80Q16.70-25.30 15.73-26.10L15.73-26.10L15.73-26.10Q14.75-26.90 13.33-26.90L13.33-26.90L13.33-26.90Q11.90-26.90 10.88-26.58L10.88-26.58L10.88-26.58Q9.85-26.25 8.95-25.70L8.95-25.70L8.95-25.70Q7.05-24.45 6.15-22.55L6.15-22.55L6.15-22.55Q4.90-22.60 4.08-23.65L4.08-23.65L4.08-23.65Q3.25-24.70 3.25-26.23L3.25-26.23L3.25-26.23Q3.25-27.75 4.20-29.18L4.20-29.18L4.20-29.18Q5.15-30.60 6.85-31.70L6.85-31.70L6.85-31.70Q10.55-34 15.63-34L15.63-34L15.63-34Q20.70-34 23.55-31.80L23.55-31.80L23.55-31.80Q26.40-29.60 26.40-25.85L26.40-25.85L26.40-25.85Q26.40-23.05 25.03-20.50L25.03-20.50L25.03-20.50Q23.65-17.95 20-15.35L20-15.35L14.60-11.55L11.35-9.40L7.20-6.85L8.95-6.65L8.95-6.65Q10.15-6.50 12.25-6.50L12.25-6.50L12.25-6.50Q14.35-6.50 16.10-6.73L16.10-6.73L16.10-6.73Q17.85-6.95 19.35-7.40L19.35-7.40L19.35-7.40Q22.65-8.30 23.70-9.55L23.70-9.55L23.70-9.55Q24.25-9.15 24.68-8.13L24.68-8.13L24.68-8.13Q25.10-7.10 25.10-5.85L25.10-5.85L25.10-5.85Q25.10-2.10 22.25-0.55L22.25-0.55L22.25-0.55Q19.40 1 13.55 1L13.55 1L13.55 1Q10.50 1 6.45 0.13L6.45 0.13L6.45 0.13Q2.40-0.75 0.75-1.25L0.75-1.25ZM53.95-13.15L53.95-13.15L53.95-13.15Q54.50-12.10 54.50-10.05L54.50-10.05L54.50-10.05Q54.50-8 52.98-6.58L52.98-6.58L52.98-6.58Q51.45-5.15 48.10-5.15L48.10-5.15L47.80-5.15L47 0L47 0Q45.65 1 43.25 1L43.25 1L43.25 1Q40.15 1 39.15-0.90L39.15-0.90L39.15-0.90Q38.75-1.60 38.75-2.20L38.75-2.20L38.75-2.20Q38.75-2.90 38.85-3.70L38.85-3.70L39.20-5.60L27.70-6.80L27.70-13.10L46.40-34.05L46.40-34L46.45-34.05L53.40-33.30L53.40-33.30Q51.05-23.70 49.05-12.65L49.05-12.65L50.20-12.65L50.20-12.65Q53.05-12.65 53.95-13.15ZM43.90-25.65L33.05-13L40.60-12.75L40.60-12.75Q42.25-20.10 43.90-25.65L43.90-25.65ZM85.90-3.75L85.90-3.75L85.90-3.75Q85.90-7.25 87.30-14.25L87.30-14.25L79.90-14.25L77.15 0L66.70 0L73.05-33L83.60-33L80.70-18.25L88.10-18.25L90.85-33L101.40-33L101.40-33Q100.70-29.30 99.80-25.15L99.80-25.15L98.10-17L98.10-17Q96.20-7.50 96.20-3.35L96.20-3.35L96.20-3.35Q96.20-1.65 96.75-0.70L96.75-0.70L96.75-0.70Q94.25 1 91.33 1L91.33 1L91.33 1Q88.40 1 87.15-0.40L87.15-0.40L87.15-0.40Q85.90-1.80 85.90-3.75ZM113.50 1L113.50 1L113.50 1Q102.50 1 102.50-9.35L102.50-9.35L102.50-9.35Q102.50-16.70 106.55-21.45L106.55-21.45L106.55-21.45Q110.85-26.50 118.30-26.50L118.30-26.50L118.30-26.50Q123.70-26.50 126.45-24L126.45-24L126.45-24Q129.20-21.50 129.20-16.25L129.20-16.25L129.20-16.25Q129.20-8.25 124.90-3.60L124.90-3.60L124.90-3.60Q120.70 1 113.50 1ZM114.80-20.75L114.80-20.75L114.80-20.75Q114.20-19.40 113.72-17.38L113.72-17.38L113.72-17.38Q113.25-15.35 112.65-12.15L112.65-12.15L112.65-12.15Q112.05-8.95 112.05-5L112.05-5L112.05-5Q112.05-3.70 112.47-2.85L112.47-2.85L112.47-2.85Q112.90-2 114.05-2L114.05-2L114.05-2Q115.20-2 115.92-2.55L115.92-2.55L115.92-2.55Q116.65-3.10 117.20-4.40L117.20-4.40L117.20-4.40Q118.20-6.70 119-10.98L119-10.98L119-10.98Q119.80-15.25 119.88-17.10L119.88-17.10L119.88-17.10Q119.95-18.95 119.95-20.33L119.95-20.33L119.95-20.33Q119.95-21.70 119.55-22.60L119.55-22.60L119.55-22.60Q119.15-23.50 118.03-23.50L118.03-23.50L118.03-23.50Q116.90-23.50 116.15-22.80L116.15-22.80L116.15-22.80Q115.40-22.10 114.80-20.75ZM148.20-2.10L148.20-2.10L148.20-2.10Q145.80 1 139.85 1L139.85 1L139.85 1Q136.75 1 134.50-0.88L134.50-0.88L134.50-0.88Q132.25-2.75 132.25-5.45L132.25-5.45L132.25-5.45Q132.25-6.95 132.40-7.70L132.40-7.70L135.75-25.50L145.90-26.50L142.25-7.20L142.25-7.20Q142.05-6.10 142.05-5.45L142.05-5.45L142.05-5.45Q142.05-2.55 143.80-2.55L143.80-2.55L143.80-2.55Q145.75-2.55 147.15-5.20L147.15-5.20L147.15-5.20Q147.60-6.05 147.80-7.15L147.80-7.15L151.35-25.50L161.20-26.50L157.50-7L157.50-7Q157.35-6.25 157.35-5.45L157.35-5.45L157.35-5.45Q157.35-4.65 157.80-3.78L157.80-3.78L157.80-3.78Q158.25-2.90 159.70-2.70L159.70-2.70L159.70-2.70Q159.40-1.50 158.35-0.70L158.35-0.70L158.35-0.70Q156.15 1 153.78 1L153.78 1L153.78 1Q151.40 1 150 0.15L150 0.15L150 0.15Q148.60-0.70 148.20-2.10ZM179.55-14.05L179.55-14.05L179.55-14.05Q181.35-17.25 181.35-20.50L181.35-20.50L181.35-20.50Q181.35-22.65 179.80-22.65L179.80-22.65L179.80-22.65Q178.60-22.65 177.35-20.60L177.35-20.60L177.35-20.60Q176.05-18.55 175.65-15.90L175.65-15.90L173.05 0L162.70 1L167.80-25.50L176.05-26.50L175.15-21.45L175.15-21.45Q177.60-26.50 183.10-26.50L183.10-26.50L183.10-26.50Q186-26.50 187.58-25L187.58-25L187.58-25Q189.15-23.50 189.15-20.43L189.15-20.43L189.15-20.43Q189.15-17.35 187.13-15.40L187.13-15.40L187.13-15.40Q185.10-13.45 181.65-13.45L181.65-13.45L181.65-13.45Q180.15-13.45 179.55-14.05ZM204.90-17.55L204.90-17.55L204.90-17.55Q205.60-19.40 205.60-21L205.60-21L205.60-21Q205.60-23.95 203.20-23.95L203.20-23.95L203.20-23.95Q201.95-23.95 200.93-22.83L200.93-22.83L200.93-22.83Q199.90-21.70 199.90-20.30L199.90-20.30L199.90-20.30Q199.90-19.30 200.70-18.50L200.70-18.50L200.70-18.50Q201.85-17.40 204.80-15.60L204.80-15.60L204.80-15.60Q207.75-13.80 208.88-12.33L208.88-12.33L208.88-12.33Q210.00-10.85 210.00-8.83L210.00-8.83L210.00-8.83Q210.00-6.80 209.03-4.95L209.03-4.95L209.03-4.95Q208.05-3.10 206.30-1.80L206.30-1.80L206.30-1.80Q202.55 1 196.55 1L196.55 1L196.55 1Q193.30 1 190.80-0.70L190.80-0.70L190.80-0.70Q188.30-2.35 188.30-4.30L188.30-4.30L188.30-4.30Q188.30-6.25 189.73-7.40L189.73-7.40L189.73-7.40Q191.15-8.55 193.25-8.55L193.25-8.55L193.25-8.55Q195.35-8.55 196.65-7.75L196.65-7.75L196.65-7.75Q196.00-6.10 196.00-5L196.00-5L196.00-5Q196.00-1.70 198.80-1.70L198.80-1.70L198.80-1.70Q200.00-1.70 200.80-2.45L200.80-2.45L200.80-2.45Q201.60-3.20 201.60-4.50L201.60-4.50L201.60-4.50Q201.60-7.05 197.30-9.75L197.30-9.75L197.30-9.75Q193.80-12.05 193.00-12.95L193.00-12.95L193.00-12.95Q191.65-14.55 191.65-16.55L191.65-16.55L191.65-16.55Q191.65-18.55 192.60-20.45L192.60-20.45L192.60-20.45Q193.55-22.35 195.30-23.70L195.30-23.70L195.30-23.70Q198.95-26.50 205.30-26.50L205.30-26.50L205.30-26.50Q208.55-26.50 210.48-25.20L210.48-25.20L210.48-25.20Q212.40-23.90 212.40-21.70L212.40-21.70L212.40-21.70Q212.40-19.50 211.08-18.25L211.08-18.25L211.08-18.25Q209.75-17 207.35-17L207.35-17L207.35-17Q205.70-17 204.90-17.55ZM234.90 0L224.00 0L230.35-33L241.35-33L234.90 0ZM243.25-5L243.25-5L243.25-5Q243.25-6.35 243.95-9.75L243.95-9.75L246.60-23.25L243.65-23.25L243.85-24.75L243.85-24.75Q249.85-26.55 255.65-30.95L255.65-30.95L258.05-30.95L256.85-25.50L260.75-25.50L260.30-23.25L256.45-23.25L253.90-9.75L253.90-9.75Q253.25-6.65 253.25-5.60L253.25-5.60L253.25-5.60Q253.25-3.20 255.35-2.70L255.35-2.70L255.35-2.70Q254.85-1 253.05 0L253.05 0L253.05 0Q251.25 1 248.70 1L248.70 1L248.70 1Q246.15 1 244.70-0.60L244.70-0.60L244.70-0.60Q243.25-2.20 243.25-5ZM262.48-1.50L262.48-1.50L262.48-1.50Q261.30-2.80 260.78-4.85L260.78-4.85L260.78-4.85Q260.25-6.90 260.25-10.25L260.25-10.25L260.25-10.25Q260.25-13.60 261.40-16.65L261.40-16.65L261.40-16.65Q262.55-19.70 264.65-21.90L264.65-21.90L264.65-21.90Q268.95-26.50 276.05-26.50L276.05-26.50L276.05-26.50Q278.60-26.50 280.45-25.65L280.45-25.65L289.00-26.50L285.30-7L285.30-7Q285.15-6.40 285.15-5.30L285.15-5.30L285.15-5.30Q285.15-4.20 285.83-3.50L285.83-3.50L285.83-3.50Q286.50-2.80 287.50-2.70L287.50-2.70L287.50-2.70Q287.00-1 285.18 0L285.18 0L285.18 0Q283.35 1 281.30 1L281.30 1L281.30 1Q279.25 1 277.88 0.23L277.88 0.23L277.88 0.23Q276.50-0.55 276.10-1.85L276.10-1.85L276.10-1.85Q275.30-0.60 273.60 0.20L273.60 0.20L273.60 0.20Q271.90 1 269.63 1L269.63 1L269.63 1Q267.35 1 265.50 0.40L265.50 0.40L265.50 0.40Q263.65-0.20 262.48-1.50ZM273.03-21.80L273.03-21.80L273.03-21.80Q272.45-20.90 271.95-19.38L271.95-19.38L271.95-19.38Q271.45-17.85 270.63-13.78L270.63-13.78L270.63-13.78Q269.80-9.70 269.80-6.80L269.80-6.80L269.80-6.80Q269.80-3.90 270.25-3.05L270.25-3.05L270.25-3.05Q270.70-2.20 271.50-2.20L271.50-2.20L271.50-2.20Q273.10-2.20 274.28-3.73L274.28-3.73L274.28-3.73Q275.45-5.25 275.90-7.95L275.90-7.95L278.55-22.60L278.55-22.60Q277.50-23.50 276.28-23.50L276.28-23.50L276.28-23.50Q275.05-23.50 274.33-23.10L274.33-23.10L274.33-23.10Q273.60-22.70 273.03-21.80ZM303.65-2.75L303.65-2.75L303.65-2.75Q302.10 1 297.15 1L297.15 1L297.15 1Q294.65 1 293.05-0.75L293.05-0.75L293.05-0.75Q291.75-2.20 291.75-3.85L291.75-3.85L291.75-3.85Q291.75-7.60 293.50-15.80L293.50-15.80L297.15-35L307.30-36L302.45-10.70L302.45-10.70Q301.60-7 301.60-5.70L301.60-5.70L301.60-5.70Q301.60-2.85 303.65-2.75ZM319.90-2.75L319.90-2.75L319.90-2.75Q318.35 1 313.40 1L313.40 1L313.40 1Q310.85 1 309.25-0.75L309.25-0.75L309.25-0.75Q307.90-2.30 307.90-3.85L307.90-3.85L307.90-3.85Q307.90-7.90 309.75-15.80L309.75-15.80L311.60-25.50L321.75-26.50L318.70-10.70L318.70-10.70Q317.85-7 317.85-5.70L317.85-5.70L317.85-5.70Q317.85-2.85 319.90-2.75ZM312.50-32.45L312.50-32.45L312.50-32.45Q312.50-34.40 314.13-35.45L314.13-35.45L314.13-35.45Q315.75-36.50 318.10-36.50L318.10-36.50L318.10-36.50Q320.45-36.50 321.88-35.45L321.88-35.45L321.88-35.45Q323.30-34.40 323.30-32.45L323.30-32.45L323.30-32.45Q323.30-30.50 321.73-29.50L321.73-29.50L321.73-29.50Q320.15-28.50 317.80-28.50L317.80-28.50L317.80-28.50Q315.45-28.50 313.98-29.50L313.98-29.50L313.98-29.50Q312.50-30.50 312.50-32.45ZM326.32-1.50L326.32-1.50L326.32-1.50Q325.15-2.80 324.63-4.85L324.63-4.85L324.63-4.85Q324.10-6.90 324.10-10.25L324.10-10.25L324.10-10.25Q324.10-13.60 325.25-16.65L325.25-16.65L325.25-16.65Q326.40-19.70 328.50-21.90L328.50-21.90L328.50-21.90Q332.80-26.50 339.90-26.50L339.90-26.50L339.90-26.50Q342.45-26.50 344.30-25.65L344.30-25.65L352.85-26.50L349.15-7L349.15-7Q349-6.40 349-5.30L349-5.30L349-5.30Q349-4.20 349.68-3.50L349.68-3.50L349.68-3.50Q350.35-2.80 351.35-2.70L351.35-2.70L351.35-2.70Q350.85-1 349.03 0L349.03 0L349.03 0Q347.20 1 345.15 1L345.15 1L345.15 1Q343.10 1 341.73 0.23L341.73 0.23L341.73 0.23Q340.35-0.55 339.95-1.85L339.95-1.85L339.95-1.85Q339.15-0.60 337.45 0.20L337.45 0.20L337.45 0.20Q335.75 1 333.48 1L333.48 1L333.48 1Q331.20 1 329.35 0.40L329.35 0.40L329.35 0.40Q327.50-0.20 326.32-1.50ZM336.88-21.80L336.88-21.80L336.88-21.80Q336.30-20.90 335.80-19.38L335.80-19.38L335.80-19.38Q335.30-17.85 334.48-13.78L334.48-13.78L334.48-13.78Q333.65-9.70 333.65-6.80L333.65-6.80L333.65-6.80Q333.65-3.90 334.10-3.05L334.10-3.05L334.10-3.05Q334.55-2.20 335.35-2.20L335.35-2.20L335.35-2.20Q336.95-2.20 338.13-3.73L338.13-3.73L338.13-3.73Q339.30-5.25 339.75-7.95L339.75-7.95L342.40-22.60L342.40-22.60Q341.35-23.50 340.13-23.50L340.13-23.50L340.13-23.50Q338.90-23.50 338.18-23.10L338.18-23.10L338.18-23.10Q337.45-22.70 336.88-21.80ZM376.70 1L376.70 1L376.70 1Q370.65 1 370.65-3.70L370.65-3.70L370.65-3.70Q370.70-5 371.10-7.20L371.10-7.20L372-11.80L372-11.80Q373.35-18.30 373.35-19.75L373.35-19.75L373.35-19.75Q373.35-22.65 371.65-22.65L371.65-22.65L371.65-22.65Q368.80-22.65 367.30-15.20L367.30-15.20L364.35 0L354.30 1L359.50-25.55L367.70-26.50L366.90-21.60L366.90-21.60Q369.25-26.50 376.45-26.50L376.45-26.50L376.45-26.50Q379.95-26.50 381.43-25.03L381.43-25.03L381.43-25.03Q382.90-23.55 382.90-20.25L382.90-20.25L382.90-20.25Q382.90-17.15 381.30-9.90L381.30-9.90L381.30-9.90Q380.55-6.65 380.55-5.43L380.55-5.43L380.55-5.43Q380.55-4.20 381.22-3.50L381.22-3.50L381.22-3.50Q381.90-2.80 382.90-2.70L382.90-2.70L382.90-2.70Q382.40-1 380.68 0L380.68 0L380.68 0Q378.95 1 376.70 1ZM407.45 0L396.75 0L402.85-32.85L402.85-32.85Q407.80-33.40 415.03-33.40L415.03-33.40L415.03-33.40Q422.25-33.40 425.60-31.30L425.60-31.30L425.60-31.30Q428.95-29.20 428.95-24.98L428.95-24.98L428.95-24.98Q428.95-20.75 426.78-18.10L426.78-18.10L426.78-18.10Q424.60-15.45 420.85-14.60L420.85-14.60L420.85-14.60Q421.70-10.45 423.65-7.10L423.65-7.10L423.65-7.10Q425.45-3.95 427.55-2.95L427.55-2.95L427.55-2.95Q426.80-0.85 425.28 0.08L425.28 0.08L425.28 0.08Q423.75 1 421.58 1L421.58 1L421.58 1Q419.40 1 417.70-0.28L417.70-0.28L417.70-0.28Q416-1.55 414.65-3.90L414.65-3.90L414.65-3.90Q411.80-9 411.50-17.05L411.50-17.05L411.85-17.05L411.85-17.05Q415.55-17.15 417.40-19.07L417.40-19.07L417.40-19.07Q419.25-21 419.25-25.05L419.25-25.05L419.25-25.05Q419.25-30.10 415-30.30L415-30.30L413.90-30.30L413.90-30.30Q413.45-30.30 413.20-30.25L413.20-30.25L407.45 0ZM451.50-8.45L451.50-8.45L451.50-8.45Q452.75-7.60 452.75-5.73L452.75-5.73L452.75-5.73Q452.75-3.85 451.80-2.65L451.80-2.65L451.80-2.65Q450.85-1.45 449.30-0.65L449.30-0.65L449.30-0.65Q446.10 1 442.65 1L442.65 1L442.65 1Q439.20 1 437.18 0.25L437.18 0.25L437.18 0.25Q435.15-0.50 433.80-1.90L433.80-1.90L433.80-1.90Q431.15-4.55 431.15-9.40L431.15-9.40L431.15-9.40Q431.15-16.95 435.25-21.55L435.25-21.55L435.25-21.55Q439.65-26.50 447.30-26.50L447.30-26.50L447.30-26.50Q452.05-26.50 454.40-24.50L454.40-24.50L454.40-24.50Q456.15-23 456.15-20.55L456.15-20.55L456.15-20.55Q456.15-11.75 440.95-11.75L440.95-11.75L440.95-11.75Q440.75-10.45 440.75-9.35L440.75-9.35L440.75-9.35Q440.75-7.05 441.78-6.18L441.78-6.18L441.78-6.18Q442.80-5.30 444.70-5.30L444.70-5.30L444.70-5.30Q446.60-5.30 448.63-6.18L448.63-6.18L448.63-6.18Q450.65-7.05 451.50-8.45ZM441.30-13.90L441.30-13.90L441.30-13.90Q444.85-13.90 446.90-16.10L446.90-16.10L446.90-16.10Q448.95-18.20 448.95-21.55L448.95-21.55L448.95-21.55Q448.95-22.70 448.53-23.33L448.53-23.33L448.53-23.33Q448.10-23.95 447.25-23.95L447.25-23.95L447.25-23.95Q446.40-23.95 445.68-23.63L445.68-23.63L445.68-23.63Q444.95-23.30 444.20-22.20L444.20-22.20L444.20-22.20Q442.35-19.70 441.30-13.90ZM472.80-17.55L472.80-17.55L472.80-17.55Q473.50-19.40 473.50-21L473.50-21L473.50-21Q473.50-23.95 471.10-23.95L471.10-23.95L471.10-23.95Q469.85-23.95 468.83-22.83L468.83-22.83L468.83-22.83Q467.80-21.70 467.80-20.30L467.80-20.30L467.80-20.30Q467.80-19.30 468.60-18.50L468.60-18.50L468.60-18.50Q469.75-17.40 472.70-15.60L472.70-15.60L472.70-15.60Q475.65-13.80 476.78-12.33L476.78-12.33L476.78-12.33Q477.90-10.85 477.90-8.83L477.90-8.83L477.90-8.83Q477.90-6.80 476.93-4.95L476.93-4.95L476.93-4.95Q475.95-3.10 474.20-1.80L474.20-1.80L474.20-1.80Q470.45 1 464.45 1L464.45 1L464.45 1Q461.20 1 458.70-0.70L458.70-0.70L458.70-0.70Q456.20-2.35 456.20-4.30L456.20-4.30L456.20-4.30Q456.20-6.25 457.63-7.40L457.63-7.40L457.63-7.40Q459.05-8.55 461.15-8.55L461.15-8.55L461.15-8.55Q463.25-8.55 464.55-7.75L464.55-7.75L464.55-7.75Q463.90-6.10 463.90-5L463.90-5L463.90-5Q463.90-1.70 466.70-1.70L466.70-1.70L466.70-1.70Q467.90-1.70 468.70-2.45L468.70-2.45L468.70-2.45Q469.50-3.20 469.50-4.50L469.50-4.50L469.50-4.50Q469.50-7.05 465.20-9.75L465.20-9.75L465.20-9.75Q461.70-12.05 460.90-12.95L460.90-12.95L460.90-12.95Q459.55-14.55 459.55-16.55L459.55-16.55L459.55-16.55Q459.55-18.55 460.50-20.45L460.50-20.45L460.50-20.45Q461.45-22.35 463.20-23.70L463.20-23.70L463.20-23.70Q466.85-26.50 473.20-26.50L473.20-26.50L473.20-26.50Q476.45-26.50 478.38-25.20L478.38-25.20L478.38-25.20Q480.30-23.90 480.30-21.70L480.30-21.70L480.30-21.70Q480.30-19.50 478.98-18.25L478.98-18.25L478.98-18.25Q477.65-17 475.25-17L475.25-17L475.25-17Q473.60-17 472.80-17.55ZM482.95-5L482.95-5L482.95-5Q482.95-6.35 483.65-9.75L483.65-9.75L486.30-23.25L483.35-23.25L483.55-24.75L483.55-24.75Q489.55-26.55 495.35-30.95L495.35-30.95L497.75-30.95L496.55-25.50L500.45-25.50L500.00-23.25L496.15-23.25L493.60-9.75L493.60-9.75Q492.95-6.65 492.95-5.60L492.95-5.60L492.95-5.60Q492.95-3.20 495.05-2.70L495.05-2.70L495.05-2.70Q494.55-1 492.75 0L492.75 0L492.75 0Q490.95 1 488.40 1L488.40 1L488.40 1Q485.85 1 484.40-0.60L484.40-0.60L484.40-0.60Q482.95-2.20 482.95-5ZM502.18-1.50L502.18-1.50L502.18-1.50Q501.00-2.80 500.48-4.85L500.48-4.85L500.48-4.85Q499.95-6.90 499.95-10.25L499.95-10.25L499.95-10.25Q499.95-13.60 501.10-16.65L501.10-16.65L501.10-16.65Q502.25-19.70 504.35-21.90L504.35-21.90L504.35-21.90Q508.65-26.50 515.75-26.50L515.75-26.50L515.75-26.50Q518.30-26.50 520.15-25.65L520.15-25.65L528.70-26.50L525.00-7L525.00-7Q524.85-6.40 524.85-5.30L524.85-5.30L524.85-5.30Q524.85-4.20 525.53-3.50L525.53-3.50L525.53-3.50Q526.20-2.80 527.20-2.70L527.20-2.70L527.20-2.70Q526.70-1 524.88 0L524.88 0L524.88 0Q523.05 1 521.00 1L521.00 1L521.00 1Q518.95 1 517.58 0.23L517.58 0.23L517.58 0.23Q516.20-0.55 515.80-1.85L515.80-1.85L515.80-1.85Q515.00-0.60 513.30 0.20L513.30 0.20L513.30 0.20Q511.60 1 509.33 1L509.33 1L509.33 1Q507.05 1 505.20 0.40L505.20 0.40L505.20 0.40Q503.35-0.20 502.18-1.50ZM512.73-21.80L512.73-21.80L512.73-21.80Q512.15-20.90 511.65-19.38L511.65-19.38L511.65-19.38Q511.15-17.85 510.33-13.78L510.33-13.78L510.33-13.78Q509.50-9.70 509.50-6.80L509.50-6.80L509.50-6.80Q509.50-3.90 509.95-3.05L509.95-3.05L509.95-3.05Q510.40-2.20 511.20-2.20L511.20-2.20L511.20-2.20Q512.80-2.20 513.98-3.73L513.98-3.73L513.98-3.73Q515.15-5.25 515.60-7.95L515.60-7.95L518.25-22.60L518.25-22.60Q517.20-23.50 515.98-23.50L515.98-23.50L515.98-23.50Q514.75-23.50 514.03-23.10L514.03-23.10L514.03-23.10Q513.30-22.70 512.73-21.80ZM547.45-2.10L547.45-2.10L547.45-2.10Q545.05 1 539.10 1L539.10 1L539.10 1Q536.00 1 533.75-0.88L533.75-0.88L533.75-0.88Q531.50-2.75 531.50-5.45L531.50-5.45L531.50-5.45Q531.50-6.95 531.65-7.70L531.65-7.70L535.00-25.50L545.15-26.50L541.50-7.20L541.50-7.20Q541.30-6.10 541.30-5.45L541.30-5.45L541.30-5.45Q541.30-2.55 543.05-2.55L543.05-2.55L543.05-2.55Q545.00-2.55 546.40-5.20L546.40-5.20L546.40-5.20Q546.85-6.05 547.05-7.15L547.05-7.15L550.60-25.50L560.45-26.50L556.75-7L556.75-7Q556.60-6.25 556.60-5.45L556.60-5.45L556.60-5.45Q556.60-4.65 557.05-3.78L557.05-3.78L557.05-3.78Q557.50-2.90 558.95-2.70L558.95-2.70L558.95-2.70Q558.65-1.50 557.60-0.70L557.60-0.70L557.60-0.70Q555.40 1 553.03 1L553.03 1L553.03 1Q550.65 1 549.25 0.15L549.25 0.15L549.25 0.15Q547.85-0.70 547.45-2.10ZM578.80-14.05L578.80-14.05L578.80-14.05Q580.60-17.25 580.60-20.50L580.60-20.50L580.60-20.50Q580.60-22.65 579.05-22.65L579.05-22.65L579.05-22.65Q577.85-22.65 576.60-20.60L576.60-20.60L576.60-20.60Q575.30-18.55 574.90-15.90L574.90-15.90L572.30 0L561.95 1L567.05-25.50L575.30-26.50L574.40-21.45L574.40-21.45Q576.85-26.50 582.35-26.50L582.35-26.50L582.35-26.50Q585.25-26.50 586.83-25L586.83-25L586.83-25Q588.40-23.50 588.40-20.43L588.40-20.43L588.40-20.43Q588.40-17.35 586.38-15.40L586.38-15.40L586.38-15.40Q584.35-13.45 580.90-13.45L580.90-13.45L580.90-13.45Q579.40-13.45 578.80-14.05ZM591.38-1.50L591.38-1.50L591.38-1.50Q590.20-2.80 589.68-4.85L589.68-4.85L589.68-4.85Q589.15-6.90 589.15-10.25L589.15-10.25L589.15-10.25Q589.15-13.60 590.30-16.65L590.30-16.65L590.30-16.65Q591.45-19.70 593.55-21.90L593.55-21.90L593.55-21.90Q597.85-26.50 604.95-26.50L604.95-26.50L604.95-26.50Q607.50-26.50 609.35-25.65L609.35-25.65L617.90-26.50L614.20-7L614.20-7Q614.05-6.40 614.05-5.30L614.05-5.30L614.05-5.30Q614.05-4.20 614.73-3.50L614.73-3.50L614.73-3.50Q615.40-2.80 616.40-2.70L616.40-2.70L616.40-2.70Q615.90-1 614.08 0L614.08 0L614.08 0Q612.25 1 610.20 1L610.20 1L610.20 1Q608.15 1 606.77 0.23L606.77 0.23L606.77 0.23Q605.40-0.55 605-1.85L605-1.85L605-1.85Q604.20-0.60 602.50 0.20L602.50 0.20L602.50 0.20Q600.80 1 598.52 1L598.52 1L598.52 1Q596.25 1 594.40 0.40L594.40 0.40L594.40 0.40Q592.55-0.20 591.38-1.50ZM601.93-21.80L601.93-21.80L601.93-21.80Q601.35-20.90 600.85-19.38L600.85-19.38L600.85-19.38Q600.35-17.85 599.52-13.78L599.52-13.78L599.52-13.78Q598.70-9.70 598.70-6.80L598.70-6.80L598.70-6.80Q598.70-3.90 599.15-3.05L599.15-3.05L599.15-3.05Q599.60-2.20 600.40-2.20L600.40-2.20L600.40-2.20Q602-2.20 603.18-3.73L603.18-3.73L603.18-3.73Q604.35-5.25 604.80-7.95L604.80-7.95L607.45-22.60L607.45-22.60Q606.40-23.50 605.18-23.50L605.18-23.50L605.18-23.50Q603.95-23.50 603.23-23.10L603.23-23.10L603.23-23.10Q602.50-22.70 601.93-21.80ZM641.75 1L641.75 1L641.75 1Q635.70 1 635.70-3.70L635.70-3.70L635.70-3.70Q635.75-5 636.15-7.20L636.15-7.20L637.05-11.80L637.05-11.80Q638.40-18.30 638.40-19.75L638.40-19.75L638.40-19.75Q638.40-22.65 636.70-22.65L636.70-22.65L636.70-22.65Q633.85-22.65 632.35-15.20L632.35-15.20L629.40 0L619.35 1L624.55-25.55L632.75-26.50L631.95-21.60L631.95-21.60Q634.30-26.50 641.50-26.50L641.50-26.50L641.50-26.50Q645-26.50 646.48-25.03L646.48-25.03L646.48-25.03Q647.95-23.55 647.95-20.25L647.95-20.25L647.95-20.25Q647.95-17.15 646.35-9.90L646.35-9.90L646.35-9.90Q645.60-6.65 645.60-5.43L645.60-5.43L645.60-5.43Q645.60-4.20 646.27-3.50L646.27-3.50L646.27-3.50Q646.95-2.80 647.95-2.70L647.95-2.70L647.95-2.70Q647.45-1 645.73 0L645.73 0L645.73 0Q644 1 641.75 1ZM652.75-5L652.75-5L652.75-5Q652.75-6.35 653.45-9.75L653.45-9.75L656.10-23.25L653.15-23.25L653.35-24.75L653.35-24.75Q659.35-26.55 665.15-30.95L665.15-30.95L667.55-30.95L666.35-25.50L670.25-25.50L669.80-23.25L665.95-23.25L663.40-9.75L663.40-9.75Q662.75-6.65 662.75-5.60L662.75-5.60L662.75-5.60Q662.75-3.20 664.85-2.70L664.85-2.70L664.85-2.70Q664.35-1 662.55 0L662.55 0L662.55 0Q660.75 1 658.20 1L658.20 1L658.20 1Q655.65 1 654.20-0.60L654.20-0.60L654.20-0.60Q652.75-2.20 652.75-5Z" fill="#545454"></path></g></g><style>text {
  font-size: 64px;
  font-family: Arial Black;
  dominant-baseline: central;
  text-anchor: middle;
}</style></svg>